<?xml version="1.0" encoding="UTF-8"?>
<svg xmlns="http://www.w3.org/2000/svg" xmlns:xlink="http://www.w3.org/1999/xlink" width="16px" height="16px" viewBox="0 0 16 16" version="1.1">
<g id="surface1">
<path fill="#6E6E6E" d="M 11 3 L 11 3.109375 C 11 3.601562 10.601562 4 10.113281 4 L 5.886719 4 C 5.398438 4 4.972656 3.601562 4.972656 3.109375 L 4.972656 3 C 4.972656 1.34375 6.316406 0 7.972656 0 C 9.65625 0 11 1.34375 11 3 Z M 1.292969 3.292969 C 1.683594 2.902344 2.316406 2.902344 2.707031 3.292969 L 4.707031 5.292969 C 4.726562 5.3125 4.746094 5.335938 4.765625 5.355469 C 5.210938 5.128906 5.714844 5 6.222656 5 L 9.75 5 C 10.285156 5 10.789062 5.128906 11.234375 5.355469 C 11.253906 5.335938 11.273438 5.3125 11.292969 5.292969 L 13.292969 3.292969 C 13.683594 2.902344 14.316406 2.902344 14.707031 3.292969 C 15.097656 3.683594 15.097656 4.316406 14.707031 4.707031 L 12.707031 6.707031 C 12.660156 6.726562 12.664062 6.746094 12.644531 6.765625 C 12.835938 7.140625 12.957031 7.558594 12.992188 8 L 15 8 C 15.554688 8 16 8.445312 16 9 C 16 9.554688 15.554688 10 15 10 L 13 10 C 13 10.769531 12.828125 11.492188 12.519531 12.144531 C 12.585938 12.183594 12.648438 12.234375 12.707031 12.292969 L 14.707031 14.292969 C 15.097656 14.683594 15.097656 15.316406 14.707031 15.707031 C 14.316406 16.097656 13.683594 16.097656 13.292969 15.707031 L 11.320312 13.738281 C 10.554688 14.417969 9.578125 14.867188 8.5 14.976562 L 8.5 7.5 C 8.5 7.226562 8.273438 7 7.972656 7 C 7.726562 7 7.472656 7.226562 7.472656 7.5 L 7.472656 14.976562 C 6.421875 14.867188 5.445312 14.417969 4.679688 13.738281 L 2.707031 15.707031 C 2.316406 16.097656 1.683594 16.097656 1.292969 15.707031 C 0.902344 15.316406 0.902344 14.683594 1.292969 14.292969 L 3.292969 12.292969 C 3.351562 12.234375 3.414062 12.183594 3.480469 12.144531 C 3.171875 11.492188 3 10.769531 3 10 L 1 10 C 0.449219 10 0 9.554688 0 9 C 0 8.445312 0.449219 8 1 8 L 3.007812 8 C 3.042969 7.558594 3.164062 7.140625 3.355469 6.765625 C 3.335938 6.746094 3.3125 6.726562 3.292969 6.707031 L 1.292969 4.707031 C 0.902344 4.316406 0.902344 3.683594 1.292969 3.292969 Z M 1.292969 3.292969 "/>
</g>
</svg>
