<?xml version="1.0" encoding="UTF-8"?>
<svg xmlns="http://www.w3.org/2000/svg" xmlns:xlink="http://www.w3.org/1999/xlink" width="16px" height="16px" viewBox="0 0 16 16" version="1.1">
<g id="surface1">
<path fill="#6E6E6E" d="M 15.496094 5.207031 C 15.601562 5.476562 15.511719 5.777344 15.300781 5.976562 L 13.945312 7.207031 C 13.980469 7.464844 14 7.730469 14 8 C 14 8.269531 13.980469 8.535156 13.945312 8.792969 L 15.300781 10.023438 C 15.511719 10.222656 15.601562 10.523438 15.496094 10.792969 C 15.359375 11.164062 15.195312 11.523438 15.007812 11.867188 L 14.859375 12.117188 C 14.652344 12.460938 14.421875 12.789062 14.167969 13.097656 C 13.980469 13.320312 13.679688 13.398438 13.402344 13.308594 L 11.664062 12.753906 C 11.242188 13.074219 10.753906 13.34375 10.289062 13.550781 L 9.898438 15.335938 C 9.835938 15.617188 9.617188 15.816406 9.328125 15.890625 C 8.898438 15.960938 8.453125 16 7.972656 16 C 7.546875 16 7.101562 15.960938 6.671875 15.890625 C 6.382812 15.816406 6.164062 15.617188 6.101562 15.335938 L 5.710938 13.550781 C 5.21875 13.34375 4.757812 13.074219 4.335938 12.753906 L 2.597656 13.308594 C 2.320312 13.398438 2.015625 13.320312 1.832031 13.097656 C 1.578125 12.789062 1.347656 12.460938 1.140625 12.117188 L 0.996094 11.867188 C 0.804688 11.523438 0.640625 11.164062 0.5 10.792969 C 0.402344 10.523438 0.484375 10.222656 0.699219 10.023438 L 2.050781 8.792969 C 2.019531 8.535156 2 8.269531 2 8 C 2 7.730469 2.019531 7.464844 2.050781 7.207031 L 0.699219 5.976562 C 0.484375 5.777344 0.402344 5.476562 0.5 5.207031 C 0.640625 4.835938 0.804688 4.476562 0.996094 4.132812 L 1.140625 3.882812 C 1.347656 3.539062 1.578125 3.210938 1.832031 2.90625 C 2.015625 2.679688 2.320312 2.605469 2.597656 2.691406 L 4.335938 3.246094 C 4.757812 2.921875 5.21875 2.65625 5.710938 2.449219 L 6.101562 0.667969 C 6.164062 0.382812 6.382812 0.15625 6.671875 0.109375 C 7.101562 0.0390625 7.546875 0 8 0 C 8.453125 0 8.898438 0.0390625 9.328125 0.109375 C 9.617188 0.15625 9.835938 0.382812 9.898438 0.667969 L 10.289062 2.449219 C 10.753906 2.65625 11.242188 2.921875 11.664062 3.246094 L 13.402344 2.691406 C 13.679688 2.605469 13.980469 2.679688 14.167969 2.90625 C 14.421875 3.210938 14.652344 3.539062 14.859375 3.882812 L 15.007812 4.132812 C 15.195312 4.476562 15.359375 4.835938 15.496094 5.207031 Z M 8 10.5 C 9.382812 10.5 10.5 9.382812 10.5 7.972656 C 10.5 6.617188 9.382812 5.472656 8 5.472656 C 6.617188 5.472656 5.5 6.617188 5.5 7.972656 C 5.5 9.382812 6.617188 10.5 8 10.5 Z M 8 10.5 "/>
</g>
</svg>
