<?xml version="1.0" encoding="UTF-8"?>
<svg xmlns="http://www.w3.org/2000/svg" xmlns:xlink="http://www.w3.org/1999/xlink" width="16px" height="16px" viewBox="0 0 16 16" version="1.1">
<g id="surface1">
<path fill="#6E6E6E" d="M 15.863281 3.835938 C 15.773438 3.460938 15.292969 3.332031 15.015625 3.609375 L 12.625 6 L 10.027344 6 L 10.027344 3.402344 L 12.421875 1.011719 C 12.695312 0.738281 12.570312 0.257812 12.191406 0.167969 C 11.449219 -0.0117188 10.648438 -0.0234375 9.820312 0.175781 C 7.898438 0.632812 6.398438 2.265625 6.09375 4.214844 C 5.929688 5.023438 6.007812 5.835938 6.253906 6.566406 L 0.6875 12.132812 C -0.191406 13.011719 -0.191406 14.433594 0.6875 15.3125 C 1.097656 15.753906 1.671875 16 2.222656 16 C 2.769531 16 3.375 15.78125 3.8125 15.339844 L 9.378906 9.773438 C 10.113281 10.015625 10.917969 10.09375 11.757812 9.964844 C 13.710938 9.65625 15.339844 8.15625 15.800781 6.238281 C 16.054688 5.378906 16.039062 4.578125 15.863281 3.835938 Z M 2.5 14.25 C 2.085938 14.25 1.75 13.914062 1.75 13.5 C 1.75 13.085938 2.085938 12.75 2.5 12.75 C 2.914062 12.75 3.25 13.085938 3.25 13.5 C 3.25 13.914062 2.914062 14.25 2.5 14.25 Z M 2.5 14.25 "/>
</g>
</svg>
