<?xml version="1.0" encoding="UTF-8"?>
<svg xmlns="http://www.w3.org/2000/svg" xmlns:xlink="http://www.w3.org/1999/xlink" viewBox="0 0 16 16" width="16px" height="16px">
<g id="surface823549">
<path style=" stroke:none;fill-rule:nonzero;fill:rgb(58.431375%,64.705884%,65.098041%);fill-opacity:1;" d="M 7.992188 0.527344 C 7.699219 0.53125 7.460938 0.773438 7.464844 1.066406 L 7.464844 2.667969 C 7.464844 2.859375 7.566406 3.039062 7.730469 3.136719 C 7.898438 3.230469 8.101562 3.230469 8.269531 3.136719 C 8.433594 3.039062 8.535156 2.859375 8.535156 2.667969 L 8.535156 1.066406 C 8.535156 0.921875 8.480469 0.785156 8.375 0.683594 C 8.273438 0.578125 8.136719 0.523438 7.992188 0.527344 Z M 3.089844 2.558594 C 2.875 2.558594 2.679688 2.691406 2.597656 2.890625 C 2.515625 3.09375 2.566406 3.324219 2.722656 3.476562 L 3.851562 4.605469 C 3.984375 4.746094 4.183594 4.800781 4.371094 4.753906 C 4.558594 4.703125 4.703125 4.558594 4.753906 4.371094 C 4.800781 4.183594 4.746094 3.984375 4.605469 3.851562 L 3.476562 2.722656 C 3.375 2.617188 3.234375 2.558594 3.089844 2.558594 Z M 12.890625 2.558594 C 12.753906 2.5625 12.621094 2.621094 12.523438 2.722656 L 11.394531 3.851562 C 11.253906 3.984375 11.199219 4.183594 11.246094 4.371094 C 11.296875 4.558594 11.441406 4.703125 11.628906 4.753906 C 11.816406 4.800781 12.015625 4.746094 12.148438 4.605469 L 13.277344 3.476562 C 13.4375 3.320312 13.484375 3.085938 13.398438 2.882812 C 13.3125 2.683594 13.113281 2.554688 12.890625 2.558594 Z M 8 4.265625 C 5.9375 4.265625 4.265625 5.9375 4.265625 8 C 4.265625 10.0625 5.9375 11.734375 8 11.734375 C 10.0625 11.734375 11.734375 10.0625 11.734375 8 C 11.734375 5.9375 10.0625 4.265625 8 4.265625 Z M 1.066406 7.464844 C 0.875 7.464844 0.695312 7.566406 0.597656 7.730469 C 0.5 7.898438 0.5 8.101562 0.597656 8.269531 C 0.695312 8.433594 0.875 8.535156 1.066406 8.535156 L 2.667969 8.535156 C 2.859375 8.535156 3.039062 8.433594 3.136719 8.269531 C 3.230469 8.101562 3.230469 7.898438 3.136719 7.730469 C 3.039062 7.566406 2.859375 7.464844 2.667969 7.464844 Z M 13.332031 7.464844 C 13.140625 7.464844 12.960938 7.566406 12.863281 7.730469 C 12.769531 7.898438 12.769531 8.101562 12.863281 8.269531 C 12.960938 8.433594 13.140625 8.535156 13.332031 8.535156 L 14.933594 8.535156 C 15.125 8.535156 15.304688 8.433594 15.402344 8.269531 C 15.5 8.101562 15.5 7.898438 15.402344 7.730469 C 15.304688 7.566406 15.125 7.464844 14.933594 7.464844 Z M 4.21875 11.230469 C 4.082031 11.238281 3.949219 11.292969 3.851562 11.394531 L 2.722656 12.523438 C 2.582031 12.660156 2.523438 12.855469 2.574219 13.042969 C 2.621094 13.230469 2.769531 13.378906 2.957031 13.425781 C 3.144531 13.476562 3.339844 13.417969 3.476562 13.277344 L 4.605469 12.148438 C 4.765625 11.996094 4.8125 11.761719 4.726562 11.558594 C 4.640625 11.355469 4.4375 11.226562 4.21875 11.230469 Z M 11.765625 11.230469 C 11.546875 11.230469 11.351562 11.363281 11.273438 11.566406 C 11.191406 11.765625 11.238281 11.996094 11.394531 12.148438 L 12.523438 13.277344 C 12.660156 13.417969 12.855469 13.472656 13.042969 13.425781 C 13.230469 13.378906 13.378906 13.230469 13.425781 13.042969 C 13.472656 12.855469 13.417969 12.660156 13.277344 12.523438 L 12.148438 11.394531 C 12.046875 11.289062 11.910156 11.230469 11.765625 11.230469 Z M 7.992188 12.792969 C 7.699219 12.796875 7.460938 13.039062 7.464844 13.332031 L 7.464844 14.933594 C 7.464844 15.125 7.566406 15.304688 7.730469 15.402344 C 7.898438 15.5 8.101562 15.5 8.269531 15.402344 C 8.433594 15.304688 8.535156 15.125 8.535156 14.933594 L 8.535156 13.332031 C 8.535156 13.1875 8.480469 13.050781 8.375 12.949219 C 8.273438 12.847656 8.136719 12.789062 7.992188 12.792969 Z M 7.992188 12.792969 "/>
</g>
</svg>
